<svg xmlns="http://www.w3.org/2000/svg" width="20" height="20" viewBox="0 0 20 20" id="shared_asset_images_schema-pane_schema_calendar_clock_discrete_20px"><path fill="#4996B2" fill-rule="evenodd" d="M15.5 10c1.9 0 3.5 1.6 3.5 3.5S17.4 17 15.5 17 12 15.4 12 13.5s1.6-3.5 3.5-3.5zm0 1c-1.4 0-2.5 1.1-2.5 2.5s1.1 2.5 2.5 2.5 2.5-1.1 2.5-2.5-1.1-2.5-2.5-2.5zm.5.5V13h1v1h-2v-2.5h1zM9 4v1h2V4h1v1h2c.464 0 .93.43.993.893L15 6v3H6v4h5v1H6c-.464 0-.93-.43-.993-.893L5 13V6c0-.464.43-.93.893-.993L6 5h2V4h1zM8 6H6v2h8V6h-2v1h-1V6H9v1H8V6z" /></svg>