<svg xmlns="http://www.w3.org/2000/svg" width="24" height="20" viewBox="0 0 24 20" id="shared_asset_images_authoring-toolbar_WebAuthoring_Toolbar_Totals"><g fill="#666"><path d="M18.4 11.2l-2.3-3c-.1-.1 0-.2.1-.2h4.6c.1 0 .2.1.1.2l-2.3 3c0 .1-.2.1-.2 0zM12.5 5c-.3 0-.5-.2-.5-.5v-2c0-.3.2-.5.5-.5s.5.2.5.5v2c0 .3-.2.5-.5.5zM12.5 17c-.3 0-.5-.2-.5-.5v-2c0-.3.2-.5.5-.5s.5.2.5.5v2c0 .3-.2.5-.5.5z" /><path d="M12.5 4V2H8.4v1h3.5c.1 0 .2.1.2.2V4h.4zM12.2 15v.8c0 .1-.1.2-.2.2H8.4v1h4.2v-2h-.4z" /><path d="M9.8 16H4.4l4-6.5-4-6.5h5.4V2H2.6l-.4.7 4.2 6.8-4.2 6.8.4.7h7.2z" /><circle cx="2.6" cy="2.5" r=".5" /><circle cx="2.6" cy="16.5" r=".5" /></g></svg>